<svg xmlns="http://www.w3.org/2000/svg" viewBox="0 0 1600 900" preserveAspectRatio="xMidYMid slice" role="img" aria-label="evidence sailing scene"><defs><linearGradient id="sky_evidence" x1="0" y1="0" x2="0" y2="1"><stop offset="0" stop-color="#7fc0ef"/><stop offset="0.55" stop-color="#bfe4fb"/><stop offset="1" stop-color="#e9f6ff"/></linearGradient><linearGradient id="wat_evidence" x1="0" y1="0" x2="0" y2="1"><stop offset="0" stop-color="#2fb5c9"/><stop offset="0.4" stop-color="#1487b5"/><stop offset="1" stop-color="#0a3a63"/></linearGradient><radialGradient id="sun_evidence"><stop offset="0" stop-color="#ffffff"/><stop offset="0.55" stop-color="#ffffff" stop-opacity="0.55"/><stop offset="1" stop-color="#eaf6ff" stop-opacity="0"/></radialGradient></defs><rect width="1600" height="558" fill="url(#sky_evidence)"/><circle cx="800" cy="216" r="360" fill="url(#sun_evidence)"/><circle cx="800" cy="216" r="70" fill="#ffffff"/><path d="M 256 180 q 10 -8 20 0 q 10 -8 20 0" stroke="#0a2540" stroke-width="3" fill="none" opacity="0.5"/><path d="M 316 198 q 10 -8 20 0 q 10 -8 20 0" stroke="#0a2540" stroke-width="3" fill="none" opacity="0.5"/><path d="M 376 174 q 10 -8 20 0 q 10 -8 20 0" stroke="#0a2540" stroke-width="3" fill="none" opacity="0.5"/><rect y="558" width="1600" height="342" fill="url(#wat_evidence)"/><ellipse cx="800" cy="568" rx="40" ry="6" fill="#dff4ff" opacity="0.40"/><ellipse cx="800" cy="594" rx="50" ry="6" fill="#dff4ff" opacity="0.37"/><ellipse cx="800" cy="620" rx="60" ry="6" fill="#dff4ff" opacity="0.34"/><ellipse cx="800" cy="646" rx="70" ry="6" fill="#dff4ff" opacity="0.31"/><ellipse cx="800" cy="672" rx="80" ry="6" fill="#dff4ff" opacity="0.28"/><ellipse cx="800" cy="698" rx="90" ry="6" fill="#dff4ff" opacity="0.25"/><ellipse cx="800" cy="724" rx="100" ry="6" fill="#dff4ff" opacity="0.22"/><ellipse cx="800" cy="750" rx="110" ry="6" fill="#dff4ff" opacity="0.19"/><ellipse cx="800" cy="776" rx="120" ry="6" fill="#dff4ff" opacity="0.16"/><ellipse cx="800" cy="802" rx="130" ry="6" fill="#dff4ff" opacity="0.13"/><ellipse cx="800" cy="828" rx="140" ry="6" fill="#dff4ff" opacity="0.10"/><ellipse cx="800" cy="854" rx="150" ry="6" fill="#dff4ff" opacity="0.07"/><ellipse cx="800" cy="880" rx="160" ry="6" fill="#dff4ff" opacity="0.05"/><path d="M0 678 C 400 668 800 688 1600 672 L 1600 900 L 0 900 Z" fill="#0f6f9c" opacity="0.55"/><path d="M0 753 C 400 737 800 769 1600 743 L 1600 900 L 0 900 Z" fill="#0c5680" opacity="0.55"/><path d="M0 828 C 400 806 800 850 1600 815 L 1600 900 L 0 900 Z" fill="#0a3f63" opacity="0.55"/></svg>