<svg xmlns="http://www.w3.org/2000/svg" viewBox="0 0 1600 900" preserveAspectRatio="xMidYMid slice" role="img" aria-label="faq sailing scene"><defs><linearGradient id="sky_faq" x1="0" y1="0" x2="0" y2="1"><stop offset="0" stop-color="#a7d7f0"/><stop offset="0.5" stop-color="#d7eefb"/><stop offset="1" stop-color="#f3fbff"/></linearGradient><linearGradient id="wat_faq" x1="0" y1="0" x2="0" y2="1"><stop offset="0" stop-color="#5bbcc9"/><stop offset="0.4" stop-color="#2b93b8"/><stop offset="1" stop-color="#0e4c73"/></linearGradient><radialGradient id="sun_faq"><stop offset="0" stop-color="#fff6e0"/><stop offset="0.55" stop-color="#fff6e0" stop-opacity="0.55"/><stop offset="1" stop-color="#fdeecb" stop-opacity="0"/></radialGradient></defs><rect width="1600" height="540" fill="url(#sky_faq)"/><circle cx="1248" cy="180" r="360" fill="url(#sun_faq)"/><circle cx="1248" cy="180" r="70" fill="#fff6e0"/><path d="M 256 180 q 10 -8 20 0 q 10 -8 20 0" stroke="#0a2540" stroke-width="3" fill="none" opacity="0.5"/><path d="M 316 198 q 10 -8 20 0 q 10 -8 20 0" stroke="#0a2540" stroke-width="3" fill="none" opacity="0.5"/><path d="M 376 174 q 10 -8 20 0 q 10 -8 20 0" stroke="#0a2540" stroke-width="3" fill="none" opacity="0.5"/><rect y="540" width="1600" height="360" fill="url(#wat_faq)"/><ellipse cx="1248" cy="550" rx="40" ry="6" fill="#eafaff" opacity="0.40"/><ellipse cx="1248" cy="576" rx="50" ry="6" fill="#eafaff" opacity="0.37"/><ellipse cx="1248" cy="602" rx="60" ry="6" fill="#eafaff" opacity="0.34"/><ellipse cx="1248" cy="628" rx="70" ry="6" fill="#eafaff" opacity="0.31"/><ellipse cx="1248" cy="654" rx="80" ry="6" fill="#eafaff" opacity="0.28"/><ellipse cx="1248" cy="680" rx="90" ry="6" fill="#eafaff" opacity="0.25"/><ellipse cx="1248" cy="706" rx="100" ry="6" fill="#eafaff" opacity="0.22"/><ellipse cx="1248" cy="732" rx="110" ry="6" fill="#eafaff" opacity="0.19"/><ellipse cx="1248" cy="758" rx="120" ry="6" fill="#eafaff" opacity="0.16"/><ellipse cx="1248" cy="784" rx="130" ry="6" fill="#eafaff" opacity="0.13"/><ellipse cx="1248" cy="810" rx="140" ry="6" fill="#eafaff" opacity="0.10"/><ellipse cx="1248" cy="836" rx="150" ry="6" fill="#eafaff" opacity="0.07"/><ellipse cx="1248" cy="862" rx="160" ry="6" fill="#eafaff" opacity="0.05"/><ellipse cx="1248" cy="888" rx="170" ry="6" fill="#eafaff" opacity="0.05"/><path d="M0 666 C 400 656 800 676 1600 660 L 1600 900 L 0 900 Z" fill="#1682a3" opacity="0.55"/><path d="M0 745 C 400 729 800 761 1600 736 L 1600 900 L 0 900 Z" fill="#116586" opacity="0.55"/><path d="M0 824 C 400 802 800 846 1600 811 L 1600 900 L 0 900 Z" fill="#0c4a6b" opacity="0.55"/><path d="M 736 463.0 L 736 540 L 698.6 540 Z" fill="#0a2540"/><path d="M 703.0 540 Q 736 551.0 769.0 540 Z" fill="#0a2540"/><rect x="1152" y="460" width="16" height="170" fill="#0a2540"/><rect x="1140" y="460" width="40" height="12" fill="#0a2540"/></svg>