<svg xmlns="http://www.w3.org/2000/svg" viewBox="0 0 1600 900" preserveAspectRatio="xMidYMid slice" role="img" aria-label="participants sailing scene"><defs><linearGradient id="sky_participants" x1="0" y1="0" x2="0" y2="1"><stop offset="0" stop-color="#7fc0ef"/><stop offset="0.55" stop-color="#bfe4fb"/><stop offset="1" stop-color="#e9f6ff"/></linearGradient><linearGradient id="wat_participants" x1="0" y1="0" x2="0" y2="1"><stop offset="0" stop-color="#2fb5c9"/><stop offset="0.4" stop-color="#1487b5"/><stop offset="1" stop-color="#0a3a63"/></linearGradient><radialGradient id="sun_participants"><stop offset="0" stop-color="#ffffff"/><stop offset="0.55" stop-color="#ffffff" stop-opacity="0.55"/><stop offset="1" stop-color="#eaf6ff" stop-opacity="0"/></radialGradient></defs><rect width="1600" height="540" fill="url(#sky_participants)"/><circle cx="416" cy="198" r="360" fill="url(#sun_participants)"/><circle cx="416" cy="198" r="70" fill="#ffffff"/><path d="M 256 180 q 10 -8 20 0 q 10 -8 20 0" stroke="#0a2540" stroke-width="3" fill="none" opacity="0.5"/><path d="M 316 198 q 10 -8 20 0 q 10 -8 20 0" stroke="#0a2540" stroke-width="3" fill="none" opacity="0.5"/><path d="M 376 174 q 10 -8 20 0 q 10 -8 20 0" stroke="#0a2540" stroke-width="3" fill="none" opacity="0.5"/><rect y="540" width="1600" height="360" fill="url(#wat_participants)"/><ellipse cx="416" cy="550" rx="40" ry="6" fill="#dff4ff" opacity="0.40"/><ellipse cx="416" cy="576" rx="50" ry="6" fill="#dff4ff" opacity="0.37"/><ellipse cx="416" cy="602" rx="60" ry="6" fill="#dff4ff" opacity="0.34"/><ellipse cx="416" cy="628" rx="70" ry="6" fill="#dff4ff" opacity="0.31"/><ellipse cx="416" cy="654" rx="80" ry="6" fill="#dff4ff" opacity="0.28"/><ellipse cx="416" cy="680" rx="90" ry="6" fill="#dff4ff" opacity="0.25"/><ellipse cx="416" cy="706" rx="100" ry="6" fill="#dff4ff" opacity="0.22"/><ellipse cx="416" cy="732" rx="110" ry="6" fill="#dff4ff" opacity="0.19"/><ellipse cx="416" cy="758" rx="120" ry="6" fill="#dff4ff" opacity="0.16"/><ellipse cx="416" cy="784" rx="130" ry="6" fill="#dff4ff" opacity="0.13"/><ellipse cx="416" cy="810" rx="140" ry="6" fill="#dff4ff" opacity="0.10"/><ellipse cx="416" cy="836" rx="150" ry="6" fill="#dff4ff" opacity="0.07"/><ellipse cx="416" cy="862" rx="160" ry="6" fill="#dff4ff" opacity="0.05"/><ellipse cx="416" cy="888" rx="170" ry="6" fill="#dff4ff" opacity="0.05"/><path d="M0 666 C 400 656 800 676 1600 660 L 1600 900 L 0 900 Z" fill="#0f6f9c" opacity="0.55"/><path d="M0 745 C 400 729 800 761 1600 736 L 1600 900 L 0 900 Z" fill="#0c5680" opacity="0.55"/><path d="M0 824 C 400 802 800 846 1600 811 L 1600 900 L 0 900 Z" fill="#0a3f63" opacity="0.55"/><g><path d="M 800 390.0 L 800 534.0 L 730.0 534.0 Z" fill="#0a2540"/><path d="M 806.0 412.0 L 806.0 534.0 L 858.0 534.0 Z" fill="#0a2540" opacity="0.92"/><line x1="800" y1="390.0" x2="800" y2="536.0" stroke="#0a2540" stroke-width="3.0"/><path d="M 710.0 534.0 Q 800 560.0 890.0 534.0 Z" fill="#0a2540"/></g></svg>