<svg xmlns="http://www.w3.org/2000/svg" viewBox="0 0 1600 900" preserveAspectRatio="xMidYMid slice" role="img" aria-label="step-reflect sailing scene"><defs><linearGradient id="sky_step-reflect" x1="0" y1="0" x2="0" y2="1"><stop offset="0" stop-color="#33407e"/><stop offset="0.5" stop-color="#6b5a9c"/><stop offset="0.8" stop-color="#c77f8f"/><stop offset="1" stop-color="#f0a878"/></linearGradient><linearGradient id="wat_step-reflect" x1="0" y1="0" x2="0" y2="1"><stop offset="0" stop-color="#b06a70"/><stop offset="0.2" stop-color="#2a3d5c"/><stop offset="1" stop-color="#0b1626"/></linearGradient><radialGradient id="sun_step-reflect"><stop offset="0" stop-color="#ffd0a6"/><stop offset="0.55" stop-color="#ffd0a6" stop-opacity="0.55"/><stop offset="1" stop-color="#e79a86" stop-opacity="0"/></radialGradient></defs><rect width="1600" height="522" fill="url(#sky_step-reflect)"/><circle cx="800" cy="396" r="360" fill="url(#sun_step-reflect)"/><circle cx="800" cy="396" r="70" fill="#ffd0a6"/><rect y="522" width="1600" height="378" fill="url(#wat_step-reflect)"/><ellipse cx="800" cy="532" rx="40" ry="6" fill="#ffc9a6" opacity="0.40"/><ellipse cx="800" cy="558" rx="50" ry="6" fill="#ffc9a6" opacity="0.37"/><ellipse cx="800" cy="584" rx="60" ry="6" fill="#ffc9a6" opacity="0.34"/><ellipse cx="800" cy="610" rx="70" ry="6" fill="#ffc9a6" opacity="0.31"/><ellipse cx="800" cy="636" rx="80" ry="6" fill="#ffc9a6" opacity="0.28"/><ellipse cx="800" cy="662" rx="90" ry="6" fill="#ffc9a6" opacity="0.25"/><ellipse cx="800" cy="688" rx="100" ry="6" fill="#ffc9a6" opacity="0.22"/><ellipse cx="800" cy="714" rx="110" ry="6" fill="#ffc9a6" opacity="0.19"/><ellipse cx="800" cy="740" rx="120" ry="6" fill="#ffc9a6" opacity="0.16"/><ellipse cx="800" cy="766" rx="130" ry="6" fill="#ffc9a6" opacity="0.13"/><ellipse cx="800" cy="792" rx="140" ry="6" fill="#ffc9a6" opacity="0.10"/><ellipse cx="800" cy="818" rx="150" ry="6" fill="#ffc9a6" opacity="0.07"/><ellipse cx="800" cy="844" rx="160" ry="6" fill="#ffc9a6" opacity="0.05"/><ellipse cx="800" cy="870" rx="170" ry="6" fill="#ffc9a6" opacity="0.05"/><ellipse cx="800" cy="896" rx="180" ry="6" fill="#ffc9a6" opacity="0.05"/><path d="M0 654 C 400 644 800 664 1600 648 L 1600 900 L 0 900 Z" fill="#1a2c46" opacity="0.55"/><path d="M0 737 C 400 721 800 753 1600 728 L 1600 900 L 0 900 Z" fill="#132238" opacity="0.55"/><path d="M0 821 C 400 799 800 843 1600 807 L 1600 900 L 0 900 Z" fill="#0d1929" opacity="0.55"/><path d="M 1056 480.0 L 1056 522 L 1035.6 522 Z" fill="#0b1626"/><path d="M 1038.0 522 Q 1056 528.0 1074.0 522 Z" fill="#0b1626"/></svg>